<?xml version="1.0" encoding="UTF-8" standalone="no"?>
<!-- Created with Inkscape (http://www.inkscape.org/) -->

<svg
   xmlns:dc="http://purl.org/dc/elements/1.1/"
   xmlns:cc="http://creativecommons.org/ns#"
   xmlns:rdf="http://www.w3.org/1999/02/22-rdf-syntax-ns#"
   xmlns:svg="http://www.w3.org/2000/svg"
   xmlns="http://www.w3.org/2000/svg"
   xmlns:sodipodi="http://sodipodi.sourceforge.net/DTD/sodipodi-0.dtd"
   xmlns:inkscape="http://www.inkscape.org/namespaces/inkscape"
   width="67.544762mm"
   height="67.544762mm"
   viewBox="0 0 67.544762 67.544762"
   version="1.1"
   id="svg8"
   inkscape:version="0.92.2 (5c3e80d, 2017-08-06)"
   sodipodi:docname="background_highlight_circle.svg">
  <defs
     id="defs2" />
  <sodipodi:namedview
     id="base"
     pagecolor="#ffffff"
     bordercolor="#666666"
     borderopacity="1.0"
     inkscape:pageopacity="0.0"
     inkscape:pageshadow="2"
     inkscape:zoom="0.35"
     inkscape:cx="-306.64206"
     inkscape:cy="26.215062"
     inkscape:document-units="mm"
     inkscape:current-layer="layer1"
     showgrid="false"
     inkscape:pagecheckerboard="true"
     inkscape:window-width="2560"
     inkscape:window-height="1377"
     inkscape:window-x="-8"
     inkscape:window-y="-8"
     inkscape:window-maximized="1" />
  <metadata
     id="metadata5">
    <rdf:RDF>
      <cc:Work
         rdf:about="">
        <dc:format>image/svg+xml</dc:format>
        <dc:type
           rdf:resource="http://purl.org/dc/dcmitype/StillImage" />
        <dc:title></dc:title>
      </cc:Work>
    </rdf:RDF>
  </metadata>
  <g
     inkscape:label="Layer 1"
     inkscape:groupmode="layer"
     id="layer1"
     transform="translate(-64.123451,-88.22464)">
    <path
       style="fill:#ffa8a8;fill-opacity:1;stroke:#000000;stroke-width:1.00157475;stroke-linejoin:round;stroke-miterlimit:4;stroke-dasharray:none;stroke-opacity:1"
       d="M 0.5 0.5 L 0.5 254.78711 L 254.78711 254.78711 L 254.78711 0.5 L 0.5 0.5 z M 127.64453 19.019531 A 108.62423 108.62423 0 0 1 138.48828 19.5625 A 108.62423 108.62423 0 0 1 149.22461 21.185547 A 108.62423 108.62423 0 0 1 159.74414 23.871094 A 108.62423 108.62423 0 0 1 169.94336 27.59375 A 108.62423 108.62423 0 0 1 179.7207 32.316406 A 108.62423 108.62423 0 0 1 188.97656 37.992188 A 108.62423 108.62423 0 0 1 197.62109 44.5625 A 108.62423 108.62423 0 0 1 205.56641 51.964844 A 108.62423 108.62423 0 0 1 212.73242 60.121094 A 108.62423 108.62423 0 0 1 219.04688 68.953125 A 108.62423 108.62423 0 0 1 224.45117 78.373047 A 108.62423 108.62423 0 0 1 228.88477 88.283203 A 108.62423 108.62423 0 0 1 232.30859 98.585938 A 108.62423 108.62423 0 0 1 234.6875 109.18164 A 108.62423 108.62423 0 0 1 235.99609 119.95898 A 108.62423 108.62423 0 0 1 236.26758 127.64453 A 108.62423 108.62423 0 0 1 235.72461 138.48828 A 108.62423 108.62423 0 0 1 234.10352 149.22461 A 108.62423 108.62423 0 0 1 231.41602 159.74414 A 108.62423 108.62423 0 0 1 227.69336 169.94336 A 108.62423 108.62423 0 0 1 222.9707 179.7207 A 108.62423 108.62423 0 0 1 217.29492 188.97656 A 108.62423 108.62423 0 0 1 210.72461 197.62109 A 108.62423 108.62423 0 0 1 203.32227 205.56641 A 108.62423 108.62423 0 0 1 195.16602 212.73242 A 108.62423 108.62423 0 0 1 186.33398 219.04688 A 108.62423 108.62423 0 0 1 176.91602 224.45117 A 108.62423 108.62423 0 0 1 167.00391 228.88477 A 108.62423 108.62423 0 0 1 156.70117 232.30859 A 108.62423 108.62423 0 0 1 146.10547 234.6875 A 108.62423 108.62423 0 0 1 135.32812 235.99609 A 108.62423 108.62423 0 0 1 127.64453 236.26758 A 108.62423 108.62423 0 0 1 116.79883 235.72461 A 108.62423 108.62423 0 0 1 106.0625 234.10352 A 108.62423 108.62423 0 0 1 95.542969 231.41602 A 108.62423 108.62423 0 0 1 85.34375 227.69336 A 108.62423 108.62423 0 0 1 75.566406 222.9707 A 108.62423 108.62423 0 0 1 66.310547 217.29492 A 108.62423 108.62423 0 0 1 57.666016 210.72461 A 108.62423 108.62423 0 0 1 49.720703 203.32227 A 108.62423 108.62423 0 0 1 42.554688 195.16602 A 108.62423 108.62423 0 0 1 36.240234 186.33398 A 108.62423 108.62423 0 0 1 30.835938 176.91602 A 108.62423 108.62423 0 0 1 26.402344 167.00391 A 108.62423 108.62423 0 0 1 22.978516 156.70117 A 108.62423 108.62423 0 0 1 20.599609 146.10547 A 108.62423 108.62423 0 0 1 19.291016 135.32812 A 108.62423 108.62423 0 0 1 19.019531 127.64453 A 108.62423 108.62423 0 0 1 19.5625 116.79883 A 108.62423 108.62423 0 0 1 21.185547 106.0625 A 108.62423 108.62423 0 0 1 23.871094 95.542969 A 108.62423 108.62423 0 0 1 27.59375 85.34375 A 108.62423 108.62423 0 0 1 32.316406 75.566406 A 108.62423 108.62423 0 0 1 37.992188 66.310547 A 108.62423 108.62423 0 0 1 44.5625 57.666016 A 108.62423 108.62423 0 0 1 51.964844 49.720703 A 108.62423 108.62423 0 0 1 60.121094 42.554688 A 108.62423 108.62423 0 0 1 68.953125 36.240234 A 108.62423 108.62423 0 0 1 78.373047 30.835938 A 108.62423 108.62423 0 0 1 88.283203 26.402344 A 108.62423 108.62423 0 0 1 98.585938 22.978516 A 108.62423 108.62423 0 0 1 109.18164 20.599609 A 108.62423 108.62423 0 0 1 119.95898 19.291016 A 108.62423 108.62423 0 0 1 127.64453 19.019531 z "
       id="rect4504"
       transform="matrix(0.26458333,0,0,0.26458333,64.123451,88.22464)" />
  </g>
</svg>
